<svg xmlns="http://www.w3.org/2000/svg" version="1.1" xmlns:xlink="http://www.w3.org/1999/xlink" xmlns:svgjs="http://svgjs.dev/svgjs" width="100%" height="100%" viewBox="0 0 1000 600"><rect width="1000" height="600" x="0" y="0" fill="#ee4e34"/><g><rect width="333.3333333333333" height="333.3333333333333" rx="13.333333333333334" ry="13.333333333333334" y="262.53931030798697" fill="#fcedda" transform="matrix(0.5201461387149495,0,0,0.5201461387149495,0,76.75016953235357)" x="240.31707763671872"/><path d="M322.2337441444396 488.20598762057244L387.7337441444396 488.20598762057244L385.7337441444396 504.20598762057244L300.7337441444396 504.20598762057244L302.2337441444396 484.20598762057244L302.2337441444396 375.20598762057244L299.2337441444396 354.20598762057244L384.2337441444396 354.20598762057244L384.2337441444396 370.20598762057244L321.2337441444396 370.20598762057244L323.2337441444396 389.20598762057244L323.2337441444396 415.70598762057244L377.2337441444396 415.70598762057244L377.2337441444396 430.20598762057244L323.2337441444396 430.20598762057244L323.2337441444396 470.20598762057244L322.2337441444396 488.20598762057244ZM473.7337441444396 504.20598762057244L452.73374414443964 504.20598762057244L452.73374414443964 370.20598762057244L411.2337441444396 370.20598762057244L411.2337441444396 354.20598762057244L514.7337441444397 354.20598762057244L514.7337441444397 370.20598762057244L473.7337441444396 370.20598762057244L473.7337441444396 504.20598762057244Z " fill="#ee4e34" transform="matrix(0.5201461387149495,0,0,0.5201461387149495,0,76.75016953235357)"/><path d="M673.2573293011084 457.50787422629656L719.601669109064 457.50787422629656L718.1865747637829 468.8286289885453L658.0450650893367 468.8286289885453L659.1063858482976 454.6776855357344L659.1063858482976 377.5550437179152L656.983744330376 362.69655309246383L717.1252540048221 362.69655309246383L717.1252540048221 374.0173078547125L672.5497821284679 374.0173078547125L673.964876473749 387.4607041348828L673.964876473749 406.2107042098572L712.1724237963383 406.2107042098572L712.1724237963383 416.47013821314505L673.964876473749 416.47013821314505L673.964876473749 444.7720251187668L673.2573293011084 457.50787422629656ZM806.7085876963665 468.8286289885453L790.7887763119543 468.8286289885453L771.8225812675619 441.8042578113023L768.6386189906794 433.45127035651814L765.454656713797 441.8042578113023L746.4884616694047 468.8286289885453L732.4161345691094 468.8286289885453L761.563147264274 427.22092441965555L736.2290276661168 390.99843999808553L751.1661346440839 389.79954062222237L767.7934932011366 413.5613331700673L770.5450655391832 421.42296842162887L773.237675612843 413.5613331700673L789.1574869972552 390.99843999808553L804.0749398870933 389.79954062222237L777.6205372655886 427.57469800597585L806.7085876963665 468.8286289885453ZM835.9931790084333 410.3184086287981L835.9931790084333 457.50787422629656L847.5890910044867 457.50787422629656Q854.1142482632829 457.50787422629656 858.8901916786065 455.3459245321172Q863.6661350939302 453.1839748379377 866.7321728420392 449.2924653884147Q869.8178646782771 445.40095593889174 871.2919212879449 439.95677352718536Q872.7856319857417 434.5125911154789 872.7856319857417 427.9284715922961L872.7856319857417 427.9284715922961Q872.7856319857417 420.99057848279296 871.4491539929761 415.9394778336647Q870.0930219120818 410.88837718453635 867.7541854247422 407.58649037888046Q865.4350030255316 404.3042576613535 862.3493111892936 402.7122765229123Q859.2636193530557 401.12029538447104 855.8044998423686 401.12029538447104L855.8044998423686 401.12029538447104Q852.3453803316816 401.12029538447104 849.3383048479592 402.00472935027176Q846.3312293642368 402.8891633160724 843.8155060837372 404.2256413088379Q841.2997828032375 405.5817733897323 839.3147199022181 407.1934086163024Q837.3296570011988 408.8246979310014 835.9931790084333 410.3184086287981L835.9931790084333 410.3184086287981ZM835.9931790084333 504.20598762057244L822.549782728263 504.20598762057244L822.549782728263 390.99843999808553L835.9931790084333 389.58334565280444L835.9931790084333 402.04403752652956L842.7148771485186 393.0424651634915Q844.7589023139245 391.8435657876284 848.552141322803 390.8215532049254Q852.3453803316816 389.79954062222237 857.8485250077746 389.79954062222237L857.8485250077746 389.79954062222237Q863.7250973583169 389.79954062222237 868.8941225362187 392.55111296026894Q874.0631477141204 395.3223393864444 877.9153489873856 400.41274821183055Q881.7675502606508 405.5031570372167 884.0081163073459 412.7162073805244Q886.229028265912 419.9292577238322 886.229028265912 428.85221373435456L886.229028265912 428.85221373435456Q886.229028265912 437.55897477545903 883.3988395753497 444.8702955594113Q880.5686508847876 452.2012704314925 875.3603175306281 457.54718240255437Q870.1716382645974 462.8930943736163 862.7817011281295 465.8608616810808Q855.3721099035328 468.8286289885453 846.2526130117212 468.8286289885453L846.2526130117212 468.8286289885453L835.9931790084333 468.8286289885453L835.9931790084333 504.20598762057244ZM953.9373618699861 452.90881760413305L961.6614185046454 459.70913209673387Q959.4601606342083 461.9693522315578 956.846166913064 463.8757987800615Q954.2321731919197 465.7822453285652 951.0482109150373 467.1580314975884Q947.8642486381548 468.55347175474066 943.9923932767608 469.2806730155101Q940.1401920034956 470.0275283644084 935.4035567644297 470.0275283644084L935.4035567644297 470.0275283644084Q925.9892485506847 470.0275283644084 919.3461667631152 466.70598747062365Q912.6834308874168 463.3844465768389 908.4774560278313 457.78303146010126Q904.2714811682458 452.2012704314925 902.3257264434843 444.98822008818473Q900.3799717187228 437.775169744877 900.3799717187228 429.9135344933154L900.3799717187228 429.9135344933154Q900.3799717187228 424.882087932316 901.3037138607813 419.96856590008997Q902.2274560028397 415.055043867864 904.0552861988278 410.5935658626028Q905.9027704829448 406.13208785734156 908.6543428209914 402.3191947603342Q911.4255692471669 398.50630166332684 915.1008837272719 395.73507523715136Q918.776198207377 392.98350289910485 923.4145630057983 391.3915217606636Q928.0529278042197 389.79954062222237 933.6346888328284 389.79954062222237L933.6346888328284 389.79954062222237Q941.280129114972 389.79954062222237 946.8618901435807 392.27595572646425Q952.4633052603183 394.7523708307062 956.1386197404235 399.2138488359674Q959.8139342205284 403.6556727530997 961.58280215213 409.88601868996227Q963.3516700837312 416.1163646268248 963.3516700837312 423.6831885564528L963.3516700837312 423.6831885564528Q963.3516700837312 425.88444642689007 963.2140914668289 428.4984401480343Q963.0765128499265 431.1124338691786 962.7817015279929 433.45127035651814L962.7817015279929 433.45127035651814L913.8233679988932 433.45127035651814Q913.8233679988932 438.7578741513222 915.2777705204321 443.3569307734857Q916.732173041971 447.9559873956493 919.3461667631152 451.39545281820745Q921.9601604842594 454.81526415263676 925.6747831406223 456.76101887739827Q929.3894057969851 458.7067736021597 933.9884624191486 458.7067736021597L933.9884624191486 458.7067736021597Q938.5089026887965 458.7067736021597 941.8697517588391 458.038534605777Q945.2306008288817 457.37029560939425 947.6480536687369 456.40724529107797Q950.0458524204632 455.4638490608906 951.5788712945177 454.46149056631646Q953.0922360804433 453.4787861598713 953.9373618699861 452.90881760413305L953.9373618699861 452.90881760413305ZM924.0828020021811 422.83806276690996L949.9082738035609 422.83806276690996Q949.9868901560765 422.0518992417538 950.0065442442053 421.28538980472655Q950.0458524204632 420.4992262795704 950.0458524204632 419.73271684254314L950.0458524204632 419.73271684254314Q950.0458524204632 415.68397468798895 949.1221102784048 412.30347152981744Q948.2180222244751 408.90331428351703 946.3312297641003 406.38759100301735Q944.4640913918545 403.8718677225176 941.5552863487767 402.4567733772365Q938.6661353938277 401.0416790319554 934.6960095917891 401.0416790319554L934.6960095917891 401.0416790319554Q929.9593743527233 401.0416790319554 926.5985252826807 402.57469790601Q923.2376762126381 404.0880626919356 920.9381479015565 406.46620735553296Q918.6386195904746 408.8246979310014 917.2628334214514 411.6548866215636Q915.8673931642991 414.4850753121258 915.1598459916586 417.0401067688833L915.1598459916586 417.0401067688833L911.4845315115535 424.74450931541367L924.0828020021811 422.83806276690996ZM998.7290287157583 409.11950925293496L998.7290287157583 468.8286289885453L985.285632435588 468.8286289885453L985.285632435588 390.99843999808553L998.7290287157583 389.58334565280444L998.7290287157583 402.5353897297522L1003.0529281041172 394.9685658001241Q1004.3107897443671 394.10378592245235 1006.2958526453864 393.1996978685228Q1008.2809155464057 392.27595572646425 1010.7180224743897 391.52910037756595Q1013.1551294023739 390.7822450286676 1015.985318092936 390.290892825445Q1018.8155067834982 389.79954062222237 1021.724311826576 389.79954062222237L1021.724311826576 389.79954062222237Q1027.306072855185 389.79954062222237 1031.177928216579 391.60771673008156Q1035.030129489844 393.3962387498118 1037.4279282415705 396.7963959961122Q1039.8453810814258 400.19655324241256 1040.8673936641285 405.01180483399406Q1041.8894062468316 409.82705642557556 1041.8894062468316 415.76259104050456L1041.8894062468316 415.76259104050456L1041.8894062468316 468.8286289885453L1028.4460099666612 468.8286289885453L1028.4460099666612 415.76259104050456Q1028.4460099666612 411.94969794349714 1027.915349587181 409.1784715173217Q1027.3846892077004 406.42689917927515 1026.067865303064 404.61872307141596Q1024.7706954865562 402.8105469635568 1022.5694376161189 401.96542117401395Q1020.3878338338105 401.12029538447104 1017.1252552044125 401.12029538447104L1017.1252552044125 401.12029538447104Q1014.7274564526862 401.12029538447104 1012.2510413484443 401.86715073336944Q1009.7746262442024 402.5943519941389 1007.396481580605 403.7735972818731Q1005.0183369170077 404.93318848147845 1002.7974249584415 406.34828282675954Q1000.5765129998754 407.76337717204063 998.7290287157583 409.11950925293496L998.7290287157583 409.11950925293496ZM1106.9051297772462 394.7523708307062L1102.817079446434 403.8129054581309Q1101.539563718055 403.1643205498771 1099.7706957864539 402.5353897297522Q1098.0018278548523 401.88680482149834 1096.0953813063488 401.3954526182757Q1094.169280669716 400.9041004150531 1092.2235259449549 400.6289431812485Q1090.2777712201932 400.33413185931494 1088.5089032885917 400.33413185931494L1088.5089032885917 400.33413185931494Q1081.0206957114792 400.33413185931494 1077.8956956989837 402.57469790601Q1074.790349774617 404.79560986457614 1074.790349774617 409.25708786983733L1074.790349774617 409.25708786983733Q1074.790349774617 412.22485517730183 1076.8343749400228 414.1706099020633Q1078.898054193558 416.1163646268248 1082.140978734827 417.6690375890082Q1085.403557364225 419.2217105511916 1089.3933372543925 420.6171508083438Q1093.4027712326888 421.9929369773671 1097.2156643296962 423.8993835258708L1097.2156643296962 423.8993835258708Q1099.9868907558716 425.2358615186362 1102.817079446434 427.08334580275323Q1105.647268136996 428.93083008687023 1107.90748827182 431.4072451911121Q1110.1677084066441 433.883660295354 1111.582802751925 436.9890062197208Q1112.997897097206 440.0943521440877 1112.997897097206 443.98586159361065L1112.997897097206 443.98586159361065Q1112.997897097206 451.1399496725317 1110.60009834548 456.0927798810155Q1108.1826455056248 461.0456100894993 1104.055286998555 464.1313019257372Q1099.9082744033562 467.1973396738462 1094.346167462876 468.6124340191273Q1088.8037146105253 470.0275283644084 1082.4947523211472 470.0275283644084L1082.4947523211472 470.0275283644084Q1080.0969535694207 470.0275283644084 1077.050569909441 469.57548433744364Q1074.0041862494609 469.1037862223499 1070.9774566776096 468.29796860906487Q1067.9310730176294 467.4921509957798 1065.159846591454 466.35221388430335Q1062.4082742534074 465.21227677282695 1060.5607899692905 463.9544151325771L1060.5607899692905 463.9544151325771L1065.2384629439694 454.5990691832188Q1066.928714523055 455.4638490608906 1069.267551010395 456.19105032166004Q1071.6063874977344 456.9379056705584 1074.0828026019763 457.50787422629656Q1076.559217706218 458.0778427820348 1078.9963246342022 458.3923081920973Q1081.4334315621863 458.7067736021597 1083.3595321988191 458.7067736021597L1083.3595321988191 458.7067736021597Q1086.6024567400882 458.7067736021597 1089.6095322238102 458.038534605777Q1092.6166077075327 457.37029560939425 1094.9161360186145 455.87658491159755Q1097.2156643296962 454.40252830192975 1098.5914504987195 452.0243836383324Q1099.9868907558716 449.646238974735 1099.9868907558716 446.1871194640479L1099.9868907558716 446.1871194640479Q1099.9868907558716 443.57312574290364 1098.886261820653 441.5880628418844Q1097.7856328854346 439.60299994086506 1095.9184945131888 438.08963515493946Q1094.0317020528137 436.55661628088495 1091.5552869485718 435.2987546406351Q1089.07887184433 434.02123891225636 1086.3272995062835 432.8419936245221Q1083.556073080108 431.68240242491675 1080.666922125159 430.4441948727958Q1077.7581170820813 429.20598732067486 1075.144123360937 427.71227662287816L1075.144123360937 427.71227662287816Q1072.6677082566953 426.2971822775971 1070.3681799456135 424.60693069851135Q1068.0686516345318 422.91667911942557 1066.2997837029302 420.79403760150393Q1064.530915771329 418.67139608358235 1063.4695950123682 416.0180941861803Q1062.4082742534074 413.36479228877823 1062.4082742534074 409.9646350424779L1062.4082742534074 409.9646350424779Q1062.4082742534074 404.5794148951582 1064.3147208019109 400.727213621893Q1066.2211673504148 396.8750123486278 1069.6999409492305 394.4575595087726Q1073.1590604599178 392.0597607570463 1078.052928404015 390.9198236455699Q1082.9271422599832 389.79954062222237 1088.8037146105253 389.79954062222237L1088.8037146105253 389.79954062222237Q1091.4963246841853 389.79954062222237 1094.1103184053295 390.2122764729294Q1096.7243121264737 390.64466641176523 1099.1221108782001 391.31290540814797Q1101.539563718055 391.9811444045307 1103.5246266190743 392.9048865465892Q1105.4900354319648 393.8286286886477 1106.9051297772462 394.7523708307062L1106.9051297772462 394.7523708307062ZM1180.35245711496 452.90881760413305L1188.0765137496192 459.70913209673387Q1185.875255879182 461.9693522315578 1183.2612621580379 463.8757987800615Q1180.6472684368937 465.7822453285652 1177.4633061600111 467.1580314975884Q1174.2793438831286 468.55347175474066 1170.4074885217346 469.2806730155101Q1166.5552872484695 470.0275283644084 1161.8186520094036 470.0275283644084L1161.8186520094036 470.0275283644084Q1152.4043437956584 470.0275283644084 1145.761262008089 466.70598747062365Q1139.0985261323908 463.3844465768389 1134.8925512728051 457.78303146010126Q1130.6865764132199 452.2012704314925 1128.7408216884583 444.98822008818473Q1126.7950669636966 437.775169744877 1126.7950669636966 429.9135344933154L1126.7950669636966 429.9135344933154Q1126.7950669636966 424.882087932316 1127.718809105755 419.96856590008997Q1128.6425512478136 415.055043867864 1130.4703814438017 410.5935658626028Q1132.3178657279186 406.13208785734156 1135.0694380659652 402.3191947603342Q1137.8406644921406 398.50630166332684 1141.5159789722456 395.73507523715136Q1145.1912934523507 392.98350289910485 1149.8296582507724 391.3915217606636Q1154.4680230491936 389.79954062222237 1160.0497840778025 389.79954062222237L1160.0497840778025 389.79954062222237Q1167.6952243599458 389.79954062222237 1173.2769853885547 392.27595572646425Q1178.8784005052921 394.7523708307062 1182.5537149853972 399.2138488359674Q1186.2290294655027 403.6556727530997 1187.9978973971038 409.88601868996227Q1189.7667653287049 416.1163646268248 1189.7667653287049 423.6831885564528L1189.7667653287049 423.6831885564528Q1189.7667653287049 425.88444642689007 1189.6291867118025 428.4984401480343Q1189.4916080949006 431.1124338691786 1189.196796772967 433.45127035651814L1189.196796772967 433.45127035651814L1140.238463243867 433.45127035651814Q1140.238463243867 438.7578741513222 1141.6928657654062 443.3569307734857Q1143.1472682869448 447.9559873956493 1145.761262008089 451.39545281820745Q1148.3752557292332 454.81526415263676 1152.0898783855964 456.76101887739827Q1155.8045010419592 458.7067736021597 1160.4035576641227 458.7067736021597L1160.4035576641227 458.7067736021597Q1164.9239979337704 458.7067736021597 1168.284847003813 458.038534605777Q1171.6456960738556 457.37029560939425 1174.0631489137108 456.40724529107797Q1176.4609476654373 455.4638490608906 1177.9939665394918 454.46149056631646Q1179.5073313254175 453.4787861598713 1180.35245711496 452.90881760413305L1180.35245711496 452.90881760413305ZM1150.497897247155 422.83806276690996L1176.323369048535 422.83806276690996Q1176.4019854010503 422.0518992417538 1176.4216394891796 421.28538980472655Q1176.4609476654373 420.4992262795704 1176.4609476654373 419.73271684254314L1176.4609476654373 419.73271684254314Q1176.4609476654373 415.68397468798895 1175.5372055233788 412.30347152981744Q1174.6331174694492 408.90331428351703 1172.746325009074 406.38759100301735Q1170.8791866368283 403.8718677225176 1167.9703815937505 402.4567733772365Q1165.0812306388016 401.0416790319554 1161.111104836763 401.0416790319554L1161.111104836763 401.0416790319554Q1156.3744695976975 401.0416790319554 1153.0136205276544 402.57469790601Q1149.6527714576123 404.0880626919356 1147.3532431465305 406.46620735553296Q1145.0537148354488 408.8246979310014 1143.6779286664255 411.6548866215636Q1142.282488409273 414.4850753121258 1141.5749412366326 417.0401067688833L1141.5749412366326 417.0401067688833L1137.8996267565276 424.74450931541367L1150.497897247155 422.83806276690996ZM1240.356388172504 468.8286289885453L1225.4978975470526 468.8286289885453L1225.4978975470526 374.0173078547125L1196.13468988247 374.0173078547125L1196.13468988247 362.69655309246383L1269.365822250766 362.69655309246383L1269.365822250766 374.0173078547125L1240.356388172504 374.0173078547125L1240.356388172504 468.8286289885453ZM1315.7887784112377 401.74922620459597L1315.7887784112377 401.74922620459597Q1312.9585897206753 401.74922620459597 1310.1873632944998 402.8891633160724Q1307.4357909564533 404.00944633942 1304.880759499696 405.93554697605254Q1302.3453821310673 407.84199352455624 1300.0655079081143 410.37737089318483Q1297.8052877732903 412.9324023499424 1295.8988412247868 415.76259104050456L1295.8988412247868 415.76259104050456L1295.8988412247868 468.8286289885453L1282.4554449446164 468.8286289885453L1282.4554449446164 390.99843999808553L1295.8988412247868 389.58334565280444L1295.8988412247868 405.5031570372167L1302.9743129511921 393.12108151600717Q1303.8980550932506 392.55111296026894 1305.273841262274 391.9614903164018Q1306.6496274312972 391.3522135844058 1308.4184953628987 390.900169557441Q1310.1873632944998 390.4284714423473 1312.2117343717769 390.11400603228486Q1314.216451360925 389.79954062222237 1316.3390928788467 389.79954062222237L1316.3390928788467 389.79954062222237Q1319.5230551557293 389.79954062222237 1321.6850048499086 390.3695091779606Q1323.846954544088 390.9198236455699 1324.9082753030489 391.4308299369214L1324.9082753030489 391.4308299369214L1324.2007281304086 403.1643205498771Q1323.1394073714478 402.8105469635568 1321.016765853526 402.2798865840764Q1318.8941243356044 401.74922620459597 1315.7887784112377 401.74922620459597ZM1388.5875208406978 456.0927798810155L1390.0026151859788 468.8286289885453L1375.1441245605274 468.8286289885453L1375.1441245605274 457.37029560939425L1368.501042772958 465.29089312534256Q1367.282489308966 466.21463526740104 1365.7298163467826 467.05976105694396Q1364.1771433845993 467.9048868464868 1362.5851622461578 468.5731258428695Q1360.9931811077167 469.26101892738114 1359.4011999692757 469.63444660183035Q1357.8092188308342 470.0275283644084 1356.4727408380686 470.0275283644084L1356.4727408380686 470.0275283644084Q1351.1661370432648 470.0275283644084 1346.3115772754254 468.3765849615805Q1341.457017507586 466.70598747062365 1337.821011203739 463.48271701748337Q1334.1850048998917 460.25944656434314 1332.0230552057124 455.4835031490195Q1329.861105511533 450.7075597336958 1329.861105511533 444.49686788496217L1329.861105511533 444.49686788496217Q1329.861105511533 437.9127483617793 1332.5144074089349 433.05818859394003Q1335.1677093063367 428.2232829142297 1339.3147219015354 425.0000124610894Q1343.4420804086053 421.77674200794917 1348.5324892339918 420.1847608695079Q1353.6425521475066 418.59277973106674 1358.516766003475 418.59277973106674L1358.516766003475 418.59277973106674Q1362.5458540699 418.59277973106674 1365.631545906138 419.0251696699026Q1368.697583654247 419.4379055206096 1370.8202251721686 420.0078740763478L1370.8202251721686 420.0078740763478Q1373.2966402764105 420.6368048964727 1375.1441245605274 421.42296842162887L1375.1441245605274 421.42296842162887L1375.1441245605274 418.946553317387Q1375.1441245605274 414.7798866340593 1374.652772357305 411.4386916521457Q1374.1614201540824 408.1171507583609 1372.628401280028 405.8176224472791Q1371.1150364941022 403.51809413619736 1368.2455396272821 402.3191947603342Q1365.3760427604625 401.12029538447104 1360.6394075213962 401.12029538447104L1360.6394075213962 401.12029538447104Q1356.8265144243892 401.12029538447104 1353.2887785611865 401.65095576395146Q1349.7510426979838 402.1816161434319 1346.979816271808 402.8105469635568L1346.979816271808 402.8105469635568Q1343.736891730539 403.596710488713 1340.9656653043635 404.44183627825583L1340.9656653043635 404.44183627825583L1335.8752564789775 394.9685658001241Q1338.9806024033442 393.5534714548431 1342.9507282053828 392.4135343433666L1342.9507282053828 392.4135343433666Q1346.350885451683 391.4308299369214 1351.0089043382336 390.6053582355075Q1355.6865773129125 389.79954062222237 1361.3469546940369 389.79954062222237L1361.3469546940369 389.79954062222237Q1369.483747179403 389.79954062222237 1374.7903509742073 391.9811444045307Q1380.0969547690115 394.18240227496796 1383.1433384289917 398.1525280770066Q1386.1897220889714 402.1029997909163 1387.3886214648346 407.6651067313961Q1388.5875208406978 413.207559583747 1388.5875208406978 420.0078740763478L1388.5875208406978 420.0078740763478L1388.5875208406978 456.0927798810155ZM1375.1441245605274 449.449698093446L1375.1441245605274 431.1124338691786Q1373.159061659508 430.8372766353739 1370.8988415246845 430.54246531344035L1370.8988415246845 430.54246531344035Q1368.9923949761805 430.3459244321513 1366.5159798719387 430.12972946273334Q1364.039564767697 429.9135344933154 1361.3469546940369 429.9135344933154L1361.3469546940369 429.9135344933154Q1357.3768288919982 429.9135344933154 1354.0945961744715 430.69969801847157Q1350.8123634569442 431.4662074554988 1348.3949106170894 433.19576721084235Q1345.997111865363 434.94498105431484 1344.6409797844685 437.69655339236135Q1343.304501791703 440.4481257304079 1343.304501791703 444.4182515324465L1343.304501791703 444.4182515324465Q1343.304501791703 447.602213809329 1344.3658225506638 450.21620753047324Q1345.4271433096246 452.83020125161744 1347.2746275937416 454.75630188825005Q1349.1024577897297 456.6627484367537 1351.6181810702296 457.68476101945674Q1354.1339043507292 458.7067736021597 1357.023055305678 458.7067736021597L1357.023055305678 458.7067736021597Q1358.3791873865725 458.7067736021597 1359.8925521724982 458.3136918395816Q1361.4255710465527 457.9402641651325 1362.9389358324784 457.29167925687864Q1364.452300618404 456.6627484367537 1365.9853194924585 455.81762264721084Q1367.4986842783837 454.9528427695391 1368.8548163592782 454.1077169799962L1368.8548163592782 454.1077169799962Q1372.0387786361607 452.0636918145902 1375.1441245605274 449.449698093446L1375.1441245605274 449.449698093446ZM1463.3123639067908 398.70284254461586L1456.295854444772 406.7020564130798Q1453.5442821067254 404.2256413088379 1449.7510430978473 402.6729683466545Q1445.9774581770976 401.12029538447104 1441.928716022543 401.12029538447104L1441.928716022543 401.12029538447104Q1435.9931814076144 401.12029538447104 1431.8265147242869 403.34120734303724Q1427.64019395283 405.5817733897323 1425.0655084079435 409.39466648673965Q1422.4711687749286 413.207559583747 1421.2722693990654 418.27831432100425Q1420.0733700232022 423.3294149701326 1420.0733700232022 428.93083008687023L1420.0733700232022 428.93083008687023Q1420.0733700232022 434.72878608489685 1421.1739989584207 439.99608170344317Q1422.2746278936393 445.2633773219894 1424.8886216147835 449.2924653884147Q1427.5026153359277 453.34120754296896 1431.8461688124157 455.6996981184374Q1436.2093763770322 458.0778427820348 1442.7148795476996 458.0778427820348L1442.7148795476996 458.0778427820348Q1448.1590619594058 458.0778427820348 1451.9523009682844 456.8003270536561Q1455.725885889034 455.5228113252773 1457.7895651425688 454.1077169799962L1457.7895651425688 454.1077169799962L1462.8799739679548 464.0919937494794Q1458.9098481659162 466.78460382313926 1453.64255254737 468.3962390497094Q1448.375256928824 470.0275283644084 1441.7321751412542 470.0275283644084L1441.7321751412542 470.0275283644084Q1432.8878354832477 470.0275283644084 1426.225099607549 466.52910067746353Q1419.5820178199797 463.0306729905186 1415.1598479909758 457.1934088162341Q1410.7376781619728 451.35614464194964 1408.4971121152776 443.7500125360638Q1406.2762001567116 436.14388043017794 1406.2762001567116 428.00708794481176L1406.2762001567116 428.00708794481176Q1406.2762001567116 420.6368048964727 1408.438149850891 413.73821996322744Q1410.6000995450704 406.83963502998216 1415.0222693740739 401.53303123517804Q1419.4444392030773 396.226427440374 1426.1857914312914 393.02281107536265Q1432.9467977476343 389.79954062222237 1442.0859487275748 389.79954062222237L1442.0859487275748 389.79954062222237Q1448.5914518982418 389.79954062222237 1453.7211688998855 391.8042576113706Q1458.8508859015296 393.8286286886477 1463.3123639067908 398.70284254461586L1463.3123639067908 398.70284254461586ZM1497.5497854273417 468.8286289885453L1484.1063891471713 468.8286289885453L1484.1063891471713 368.35693047358814L1482.6912948018903 355.6210813660584L1497.5497854273417 354.2059870207773L1497.5497854273417 420.0078740763478L1523.7290308150418 390.99843999808553L1539.9239994332584 390.99843999808553L1513.7447540455582 420.0078740763478L1501.8736848157005 424.469352081609L1513.7447540455582 428.71463511745225L1547.7856346848203 468.8286289885453L1531.079659775252 468.8286289885453L1497.5497854273417 429.4221822900928L1497.5497854273417 468.8286289885453ZM1608.418496562489 452.90881760413305L1616.1425531971481 459.70913209673387Q1613.941295326711 461.9693522315578 1611.3273016055668 463.8757987800615Q1608.7133078844226 465.7822453285652 1605.52934560754 467.1580314975884Q1602.3453833306576 468.55347175474066 1598.4735279692636 469.2806730155101Q1594.6213266959985 470.0275283644084 1589.8846914569326 470.0275283644084L1589.8846914569326 470.0275283644084Q1580.4703832431874 470.0275283644084 1573.827301455618 466.70598747062365Q1567.1645655799193 463.3844465768389 1562.958590720334 457.78303146010126Q1558.7526158607484 452.2012704314925 1556.8068611359872 444.98822008818473Q1554.8611064112256 437.775169744877 1554.8611064112256 429.9135344933154L1554.8611064112256 429.9135344933154Q1554.8611064112256 424.882087932316 1555.784848553284 419.96856590008997Q1556.7085906953425 415.055043867864 1558.5364208913306 410.5935658626028Q1560.3839051754476 406.13208785734156 1563.1354775134942 402.3191947603342Q1565.9067039396696 398.50630166332684 1569.5820184197746 395.73507523715136Q1573.2573328998797 392.98350289910485 1577.8956976983009 391.3915217606636Q1582.5340624967225 389.79954062222237 1588.115823525331 389.79954062222237L1588.115823525331 389.79954062222237Q1595.7612638074747 389.79954062222237 1601.3430248360837 392.27595572646425Q1606.944439952821 394.7523708307062 1610.6197544329261 399.2138488359674Q1614.2950689130312 403.6556727530997 1616.0639368446327 409.88601868996227Q1617.8328047762338 416.1163646268248 1617.8328047762338 423.6831885564528L1617.8328047762338 423.6831885564528Q1617.8328047762338 425.88444642689007 1617.6952261593315 428.4984401480343Q1617.557647542429 431.1124338691786 1617.262836220496 433.45127035651814L1617.262836220496 433.45127035651814L1568.304502691396 433.45127035651814Q1568.304502691396 438.7578741513222 1569.7589052129347 443.3569307734857Q1571.2133077344738 447.9559873956493 1573.827301455618 451.39545281820745Q1576.4412951767622 454.81526415263676 1580.155917833125 456.76101887739827Q1583.8705404894881 458.7067736021597 1588.4695971116512 458.7067736021597L1588.4695971116512 458.7067736021597Q1592.9900373812993 458.7067736021597 1596.350886451342 458.038534605777Q1599.7117355213845 457.37029560939425 1602.1291883612398 456.40724529107797Q1604.5269871129658 455.4638490608906 1606.0600059870203 454.46149056631646Q1607.573370772946 453.4787861598713 1608.418496562489 452.90881760413305L1608.418496562489 452.90881760413305ZM1578.563936694684 422.83806276690996L1604.3894084960634 422.83806276690996Q1604.4680248485793 422.0518992417538 1604.487678936708 421.28538980472655Q1604.5269871129658 420.4992262795704 1604.5269871129658 419.73271684254314L1604.5269871129658 419.73271684254314Q1604.5269871129658 415.68397468798895 1603.6032449709073 412.30347152981744Q1602.6991569169777 408.90331428351703 1600.812364456603 406.38759100301735Q1598.9452260843573 403.8718677225176 1596.0364210412795 402.4567733772365Q1593.1472700863305 401.0416790319554 1589.177144284292 401.0416790319554L1589.177144284292 401.0416790319554Q1584.440509045226 401.0416790319554 1581.0796599751834 402.57469790601Q1577.7188109051408 404.0880626919356 1575.419282594059 406.46620735553296Q1573.1197542829773 408.8246979310014 1571.743968113954 411.6548866215636Q1570.3485278568019 414.4850753121258 1569.6409806841611 417.0401067688833L1569.6409806841611 417.0401067688833L1565.9656662040566 424.74450931541367L1578.563936694684 422.83806276690996ZM1673.1001005947119 401.74922620459597L1673.1001005947119 401.74922620459597Q1670.26991190415 401.74922620459597 1667.498685477974 402.8891633160724Q1664.747113139928 404.00944633942 1662.1920816831703 405.93554697605254Q1659.6567043145415 407.84199352455624 1657.3768300915885 410.37737089318483Q1655.116609956765 412.9324023499424 1653.210163408261 415.76259104050456L1653.210163408261 415.76259104050456L1653.210163408261 468.8286289885453L1639.7667671280906 468.8286289885453L1639.7667671280906 390.99843999808553L1653.210163408261 389.58334565280444L1653.210163408261 405.5031570372167L1660.2856351346663 393.12108151600717Q1661.2093772767253 392.55111296026894 1662.585163445748 391.9614903164018Q1663.9609496147718 391.3522135844058 1665.729817546373 390.900169557441Q1667.498685477974 390.4284714423473 1669.5230565552515 390.11400603228486Q1671.5277735443997 389.79954062222237 1673.6504150623214 389.79954062222237L1673.6504150623214 389.79954062222237Q1676.8343773392035 389.79954062222237 1678.9963270333828 390.3695091779606Q1681.1582767275627 390.9198236455699 1682.2195974865235 391.4308299369214L1682.2195974865235 391.4308299369214L1681.5120503138828 403.1643205498771Q1680.450729554922 402.8105469635568 1678.3280880370003 402.2798865840764Q1676.205446519079 401.74922620459597 1673.1001005947119 401.74922620459597Z " fill="#fcedda" transform="matrix(0.5201461387149495,0,0,0.5201461387149495,0,76.75016953235357)"/></g></svg>