<svg xmlns="http://www.w3.org/2000/svg" version="1.1" xmlns:xlink="http://www.w3.org/1999/xlink" xmlns:svgjs="http://svgjs.dev/svgjs" width="100%" height="100%" viewBox="0 0 1000 600"><rect width="1000" height="600" x="0" y="0" fill="#eb2188"/><g><rect width="333.3333333333333" height="333.3333333333333" rx="13.333333333333334" ry="13.333333333333334" y="261.6676209073464" fill="#080a52" transform="matrix(0.5220396490133035,0,0,0.5220396490133035,0,76.39250741040705)" x="239.44541931152344"/><path d="M364.3114829456275 503.33429463166897L364.3114829456275 353.3342991729751L379.9662443764356 353.3342991729751L379.9662443764356 503.33429463166897L364.3114829456275 503.33429463166897ZM270.47220007236126 353.3342991729751L270.47220007236126 503.33429463166897L254.6091053145272 503.33429463166897L254.6091053145272 353.3342991729751L270.47220007236126 353.3342991729751ZM365.82934004253093 420.17953524444863L365.82934004253093 434.1081062513273L268.7460096484319 434.1081062513273L268.7460096484319 420.17953524444863L365.82934004253093 420.17953524444863ZM421.305528839159 503.33429463166897L404.81743410024706 503.33429463166897L473.38886059564993 353.3342991729751L489.04362202645814 353.3342991729751L557.615048521861 503.33429463166897L540.8888585520622 503.33429463166897L477.8829080786386 362.5604893698392L484.3114793125826 362.5604893698392L421.305528839159 503.33429463166897ZM528.4483827382261 463.2747720349622L431.81148090203976 463.2747720349622L436.54362361591524 450.4176295670742L523.7460019282115 450.4176295670742L528.4483827382261 463.2747720349622Z " fill="#eb2188" transform="matrix(0.5220396490133035,0,0,0.5220396490133035,0,76.39250741040705)"/><path d="M765.036426076924 502.2704630855668L765.036426076924 353.3342991407672L780.5801606473535 353.3342991407672L780.5801606473535 502.2704630855668L765.036426076924 502.2704630855668ZM671.8626711328857 353.3342991407672L671.8626711328857 502.2704630855668L656.1120807791996 502.2704630855668L656.1120807791996 353.3342991407672L671.8626711328857 353.3342991407672ZM766.5435182120798 419.70545473997754L766.5435182120798 433.5352413919946L670.1487232144733 433.5352413919946L670.1487232144733 419.70545473997754L766.5435182120798 419.70545473997754ZM871.4194003232095 503.3342928280297L871.4194003232095 503.3342928280297Q855.25509840301 503.3342928280297 842.3709381887376 496.0056879355078Q829.5163288006448 488.6475322168064 822.0695206034048 475.7929228287136Q814.6227124061649 462.90876261444123 814.6227124061649 446.3011983015489L814.6227124061649 446.3011983015489Q814.6227124061649 429.5163290315794 822.0695206034048 416.7503721220251Q829.5163288006448 403.9844152124709 842.2822857101991 396.7444627984876Q855.0482426197533 389.5045103845043 871.4194003232095 389.5045103845043L871.4194003232095 389.5045103845043Q888.0269646361019 389.5045103845043 900.8815740241947 396.7444627984876Q913.765734238467 403.9844152124709 921.0943391309889 416.7503721220251Q928.4524948496903 429.5163290315794 928.4524948496903 446.3011983015489L928.4524948496903 446.3011983015489Q928.4524948496903 462.90876261444123 921.0943391309889 475.7929228287136Q913.765734238467 488.6475322168064 900.7929215456561 496.0056879355078Q887.8201088528452 503.3342928280297 871.4194003232095 503.3342928280297ZM871.4194003232095 489.91821774252594L871.4194003232095 489.91821774252594Q883.5647898829938 489.91821774252594 892.9028509557232 484.5104165516731Q902.2704628546323 479.0730645346407 907.7078148716646 469.1735377645002Q913.1156160625175 459.3035618205393 913.1156160625175 446.3011983015489L913.1156160625175 446.3011983015489Q913.1156160625175 433.1215298254813 907.7078148716646 423.3402063600589Q902.2704628546323 413.55888289463655 892.9028509557232 408.1215308776042Q883.5647898829938 402.6841788605718 871.6262561064661 402.6841788605718L871.6262561064661 402.6841788605718Q859.717273156118 402.6841788605718 850.349661257209 408.1215308776042Q841.0116001844796 413.55888289463655 835.4560448627291 423.3402063600589Q829.9300403671582 433.1215298254813 829.9300403671582 446.3011983015489L829.9300403671582 446.3011983015489Q829.9300403671582 459.3035618205393 835.4560448627291 469.1735377645002Q841.0116001844796 479.0730645346407 850.349661257209 484.5104165516731Q859.717273156118 489.91821774252594 871.4194003232095 489.91821774252594ZM1098.8721094270036 389.5045103845043L1098.8721094270036 389.5045103845043Q1112.4950402957643 389.5045103845043 1122.6014228491613 394.70545579210045Q1132.7078054025583 399.93595202587613 1138.3520132028475 410.5742494505047Q1143.966670176957 421.2125468751332 1143.966670176957 437.3768487953327L1143.966670176957 437.3768487953327L1143.966670176957 502.2704630855668L1128.8661979992203 502.2704630855668L1128.8661979992203 438.8543901043089Q1128.8661979992203 421.2125468751332 1120.4737633642353 412.169994064199Q1112.0517779030713 403.1274412532647 1096.744449942078 403.1274412532647L1096.744449942078 403.1274412532647Q1085.2491785582433 403.1274412532647 1076.8567439232584 407.91467509434756Q1068.4347584620941 412.70190893543037 1063.8839312304476 421.74446174636466Q1059.3035531726214 430.7870145572989 1059.3035531726214 443.55297146685314L1059.3035531726214 443.55297146685314L1059.3035531726214 502.2704630855668L1044.2030809948847 502.2704630855668L1044.2030809948847 438.8543901043089Q1044.2030809948847 421.2125468751332 1035.692443055182 412.169994064199Q1027.1818051154792 403.1274412532647 1011.8449263283063 403.1274412532647L1011.8449263283063 403.1274412532647Q1000.5860615539078 403.1274412532647 992.075423614205 407.91467509434756Q983.5647856745021 412.70190893543037 978.9844076166759 421.74446174636466Q974.4040295588497 430.7870145572989 974.4040295588497 443.55297146685314L974.4040295588497 443.55297146685314L974.4040295588497 502.2704630855668L959.3035573811131 502.2704630855668L959.3035573811131 390.5683401269671L973.7539113829001 390.5683401269671L973.7539113829001 420.76928448244036L971.4193961147179 415.4501357701261Q976.5316890437754 403.3342970365214 987.9087571228921 396.4194037105128Q999.2858252020087 389.5045103845043 1014.8295597724382 389.5045103845043L1014.8295597724382 389.5045103845043Q1031.2007174758942 389.5045103845043 1042.695988859729 397.6900892362323Q1054.1912602435636 405.87566808796043 1057.589605254209 422.27637661759604L1057.589605254209 422.27637661759604L1051.6498891921246 419.94186134941367Q1056.5257755117464 406.31893048065325 1068.9666733333256 397.896945019489Q1081.4371219810846 389.5045103845043 1098.8721094270036 389.5045103845043ZM1232.50094541081 503.3342928280297L1232.50094541081 503.3342928280297Q1215.0364071387116 503.3342928280297 1201.856738662644 496.0056879355078Q1188.6475193603967 488.6475322168064 1181.200711163157 475.7929228287136Q1173.753902965917 462.90876261444123 1173.753902965917 446.3011983015489L1173.753902965917 446.3011983015489Q1173.753902965917 429.72318481483603 1180.9052029013615 416.9572279052818Q1188.0269520106267 404.19127099572756 1200.4678498322064 396.83311527702614Q1212.9087476537857 389.5045103845043 1228.4524822242151 389.5045103845043L1228.4524822242151 389.5045103845043Q1244.2030725779014 389.5045103845043 1256.4371146162243 396.62625949376945Q1268.6711566545468 403.7480086030347 1275.674702459094 416.63216881730705Q1282.707799089821 429.5163290315794 1282.707799089821 446.3011983015489L1282.707799089821 446.3011983015489Q1282.707799089821 447.36502804401175 1282.5895957851026 448.5470610911927Q1282.5009433065643 449.7290941383736 1282.5009433065643 450.9997796640931L1282.5009433065643 450.9997796640931L1185.2491743497517 450.9997796640931L1185.2491743497517 439.7113640635151L1274.4040169333748 439.7113640635151L1268.4347500451108 444.17353881662314Q1268.4347500451108 432.0577000830184 1263.2338046375148 422.60143570557085Q1258.0328592299186 413.1156205019437 1249.0789588975229 407.79647178962944Q1240.1546093913066 402.4773230773152 1228.4524822242151 402.4773230773152L1228.4524822242151 402.4773230773152Q1216.9572108403804 402.4773230773152 1207.7964547247282 407.79647178962944Q1198.6652494352554 413.1156205019437 1193.552956506198 422.6900881841094Q1188.4406635771402 432.2645558662751 1188.4406635771402 444.616801209316L1188.4406635771402 444.616801209316L1188.4406635771402 446.9513164774984Q1188.4406635771402 459.7172733870526 1194.084871377429 469.4099443739364Q1199.7290791777182 479.0730645346407 1209.8354617311152 484.5104165516731Q1219.9418442845124 489.91821774252594 1232.9146569773234 489.91821774252594L1232.9146569773234 489.91821774252594Q1243.1392428354386 489.91821774252594 1251.9453890369366 486.313016948624Q1260.7810860646143 482.7078161547221 1267.1640645193916 475.2610079574821L1267.1640645193916 475.2610079574821L1275.674702459094 485.04233142290445Q1268.227894261854 493.9666809291207 1257.057681965994 498.66526229166493Q1245.8874696701341 503.3342928280297 1232.50094541081 503.3342928280297ZM1309.303542651392 502.2704630855668L1292.9028341217563 502.2704630855668L1360.9879376393792 353.3342991407672L1376.5316722098087 353.3342991407672L1444.6167757274316 502.2704630855668L1428.009211414539 502.2704630855668L1365.4796632186667 362.49505525641956L1371.8626416734437 362.49505525641956L1309.303542651392 502.2704630855668ZM1415.6865168976774 462.49505104792786L1319.7349842927638 462.49505104792786L1324.4040148291288 449.7290941383736L1410.9879355351331 449.7290941383736L1415.6865168976774 462.49505104792786ZM1512.4950234617972 503.3342928280297L1512.4950234617972 503.3342928280297Q1495.8874591489052 503.3342928280297 1482.796443151376 496.0056879355078Q1469.7349779800265 488.6475322168064 1462.2881697827866 475.7929228287136Q1454.8413615855466 462.90876261444123 1454.8413615855466 446.3011983015489L1454.8413615855466 446.3011983015489Q1454.8413615855466 429.5163290315794 1462.2881697827866 416.7503721220251Q1469.7349779800265 403.9844152124709 1482.796443151376 396.7444627984876Q1495.8874591489052 389.5045103845043 1512.4950234617972 389.5045103845043L1512.4950234617972 389.5045103845043Q1526.7385216803277 389.5045103845043 1538.233793064163 395.0305148800752Q1549.7290644479972 400.55651937564613 1556.318898686031 411.6380791929675L1556.318898686031 411.6380791929675L1545.030483085453 419.29174317346417Q1539.2976228066254 410.7811052337613 1530.7869848669225 406.7326420471666Q1522.2763469272195 402.6841788605718 1512.2881676785405 402.6841788605718L1512.2881676785405 402.6841788605718Q1500.349633902013 402.6841788605718 1490.7751662198475 408.1215308776042Q1481.200698537682 413.55888289463655 1475.6746940421108 423.3402063600589Q1470.14868954654 433.1215298254813 1470.14868954654 446.3011983015489L1470.14868954654 446.3011983015489Q1470.14868954654 459.510417603796 1475.6746940421108 469.29174106921835Q1481.200698537682 479.0730645346407 1490.7751662198475 484.5104165516731Q1500.349633902013 489.91821774252594 1512.2881676785405 489.91821774252594L1512.2881676785405 489.91821774252594Q1522.2763469272195 489.91821774252594 1530.7869848669225 485.8993053821107Q1539.2976228066254 481.85084219551595 1545.030483085453 473.5470600390697L1545.030483085453 473.5470600390697L1556.318898686031 481.2007240195664Q1549.7290644479972 492.04587722745157 1538.233793064163 497.6900850277407Q1526.7385216803277 503.3342928280297 1512.4950234617972 503.3342928280297ZM1632.2645219674073 503.3342928280297L1632.2645219674073 503.3342928280297Q1615.6865084806946 503.3342928280297 1602.5954924831653 496.0056879355078Q1589.5044764856361 488.6475322168064 1582.0576682883961 475.7929228287136Q1574.6108600911562 462.90876261444123 1574.6108600911562 446.3011983015489L1574.6108600911562 446.3011983015489Q1574.6108600911562 429.5163290315794 1582.0576682883961 416.7503721220251Q1589.5044764856361 403.9844152124709 1602.5954924831653 396.7444627984876Q1615.6865084806946 389.5045103845043 1632.2645219674073 389.5045103845043L1632.2645219674073 389.5045103845043Q1646.537571012117 389.5045103845043 1658.0328423959518 395.0305148800752Q1669.4985629536068 400.55651937564613 1676.1179480178203 411.6380791929675L1676.1179480178203 411.6380791929675L1664.8295324172423 419.29174317346417Q1659.0966721384148 410.7811052337613 1650.5860341987118 406.7326420471666Q1642.0753962590088 402.6841788605718 1632.0576661841505 402.6841788605718L1632.0576661841505 402.6841788605718Q1620.1486832338023 402.6841788605718 1610.5742155516368 408.1215308776042Q1600.9997478694709 413.55888289463655 1595.4737433739 423.3402063600589Q1589.9477388783293 433.1215298254813 1589.9477388783293 446.3011983015489L1589.9477388783293 446.3011983015489Q1589.9477388783293 459.510417603796 1595.4737433739 469.29174106921835Q1600.9997478694709 479.0730645346407 1610.5742155516368 484.5104165516731Q1620.1486832338023 489.91821774252594 1632.0576661841505 489.91821774252594L1632.0576661841505 489.91821774252594Q1642.0753962590088 489.91821774252594 1650.5860341987118 485.8993053821107Q1659.0966721384148 481.85084219551595 1664.8295324172423 473.5470600390697L1664.8295324172423 473.5470600390697L1676.1179480178203 481.2007240195664Q1669.4985629536068 492.04587722745157 1658.0328423959518 497.6900850277407Q1646.537571012117 503.3342928280297 1632.2645219674073 503.3342928280297Z " fill="#080a52" transform="matrix(0.5220396490133035,0,0,0.5220396490133035,0,76.39250741040705)"/></g></svg>